<?xml version="1.0" encoding="UTF-8"?>
<svg id="Camada_2" data-name="Camada 2" xmlns="http://www.w3.org/2000/svg" viewBox="0 0 1378.12 299">
  <defs>
    <style>
      .cls-1 {
        fill: #e5293f;
      }
    </style>
  </defs>
  <g id="Layer_1" data-name="Layer 1">
    <g>
      <path class="cls-1" d="M15.43,256.43L0,299h187.47c27.69,0,52.47-17.12,62.15-42.93l11.92-31.79H61.44c-20.61,0-39.01,12.86-46.01,32.16ZM57.63,144.21c-9.56,20.64-16.32,42.57-24.31,63.94,18.03-19.02,39.94-21.02,63.96-21.02h138.41c23.81,0,45.1-14.83,53.35-37.17l13.94-37.72H104.04c-21.09,0-37.65,13.06-46.41,31.98ZM145.42,0c-21.09,0-37.65,13.06-46.41,31.98-9.56,20.64-16.32,42.57-24.31,63.94,18.03-19.02,39.94-21.02,63.96-21.02h138.41c23.81,0,45.1-14.83,53.35-37.17L344.35,0h-198.93Z"/>
      <path d="M582.22,92.4l-52.85,156.49v2.96h23.46l11.85-35.31h74.26l11.85,35.31h23.69v-2.96l-52.62-156.49h-39.64ZM571.97,194.46l27.34-82.01h4.78l27.56,82.01h-59.68ZM757.61,161.2l-23.69-5.92c-15.19-3.34-22.78-10.71-22.78-22.1,0-6.07,2.66-11.35,7.97-15.83,5.31-4.48,12.76-6.72,22.32-6.72,8.66,0,15.98,2.16,21.98,6.49,6,4.33,9.91,9.99,11.73,16.97l21.41-6.38c-2.73-11.69-9.04-20.99-18.91-27.9-9.87-6.91-21.95-10.36-36.22-10.36-16.25,0-29.24,4.18-38.95,12.53-9.72,8.35-14.58,18.76-14.58,31.21s3.83,22.48,11.5,29.61c7.67,7.14,17.27,12,28.82,14.58l23.69,5.7c16.1,3.8,24.15,12,24.15,24.6,0,7.29-3.11,13.33-9.34,18.11-6.23,4.78-14.58,7.18-25.06,7.18s-19.02-2.39-25.63-7.18c-6.61-4.78-10.97-11.5-13.1-20.16l-21.87,6.61c3.34,13.52,10.36,24,21.07,31.43,10.71,7.44,23.88,11.16,39.52,11.16,17.92,0,32.12-4.59,42.6-13.78,10.48-9.19,15.72-20.31,15.72-33.37s-3.8-22.51-11.39-30.18c-7.6-7.67-17.92-13.1-30.98-16.29ZM947.13,92.4h-25.74l-42.14,77.22h-4.78l-43.05-77.22h-24.83v2.96l53.08,93.62h5.47v62.87h23.46v-62.87h5.01l53.53-93.62v-2.96ZM439.85,181.24h64.69v-21.18h-64.69v-46.01h72.44v-21.64h-95.9v159.45h98.41v-21.41h-74.94v-49.2ZM969.23,114.05h57.86v85.88c0,9.26-3,17.05-9,23.35-6,6.3-14.39,9.45-25.17,9.45-7.14,0-13.78-2.16-19.93-6.49-6.15-4.33-10.52-10.44-13.1-18.34l-19.59,11.62c3.95,10.18,10.44,18.6,19.48,25.29,9.03,6.68,20.08,10.02,33.14,10.02,18.22,0,32.35-5.16,42.37-15.49,10.02-10.33,15.03-23.46,15.03-39.41v-107.52h-81.09v21.64ZM1176.06,194.91c0,11.7-3.49,20.96-10.48,27.79-6.99,6.83-16.33,10.25-28.02,10.25s-21.38-3.38-28.13-10.14c-6.76-6.76-10.14-16.06-10.14-27.9v-102.51h-23.69v102.73c0,17.46,5.69,31.78,17.08,42.94,11.39,11.16,26.34,16.74,44.87,16.74s33.29-5.62,44.76-16.86c11.46-11.24,17.2-25.51,17.2-42.82v-102.73h-23.46v102.51ZM1368.27,234.94c.62-.59.93-1.41.93-2.45,0-1.19-.46-2.17-1.38-2.94-.92-.77-2.19-1.15-3.83-1.15h-7.14v16.06h3.27v-5.58h3.2c1.68,0,2.53.72,2.53,2.16v3.42h3.27v-4.09c0-.89-.3-1.65-.89-2.27-.59-.62-1.34-.93-2.23-.93v-1.26c.89-.05,1.65-.37,2.27-.97ZM1365.15,235.27c-.42.47-1.05.71-1.9.71h-3.12v-4.76h3.12c.84,0,1.47.24,1.9.71.42.47.63,1.03.63,1.67s-.21,1.2-.63,1.67ZM1373.73,225.61c-2.92-2.9-6.62-4.35-11.08-4.35s-7.92,1.47-10.82,4.42c-2.9,2.95-4.35,6.53-4.35,10.74s1.45,7.77,4.35,10.67,6.55,4.35,10.96,4.35,8.07-1.47,10.96-4.42c2.9-2.95,4.35-6.5,4.35-10.67s-1.46-7.84-4.39-10.74ZM1371.39,245.01c-2.21,2.26-5.07,3.38-8.59,3.38s-6.32-1.14-8.55-3.42c-2.23-2.28-3.35-5.13-3.35-8.55s1.1-6.33,3.31-8.59c2.2-2.25,5.02-3.38,8.44-3.38s6.47,1.1,8.7,3.31c2.23,2.21,3.35,5.07,3.35,8.59s-1.1,6.41-3.31,8.66ZM1328.68,159.72c4.71-6.3,7.06-13.93,7.06-22.89,0-12.91-4.63-23.54-13.9-31.89-9.26-8.35-22.02-12.53-38.27-12.53h-61.05v159.45h23.46v-60.59h38.72c8.35,0,14.73,2.05,19.13,6.15,4.4,4.1,6.61,9.8,6.61,17.08v37.36h23.92v-39.18c0-10.48-2.54-18.79-7.63-24.94-5.09-6.15-10.9-10.14-17.43-11.96v-4.56c8.2-1.37,14.65-5.2,19.36-11.5ZM1303.28,161.65c-5.55,5.32-12.49,7.97-20.84,7.97h-36.45v-55.58h35.54c9.42,0,16.78,2.58,22.1,7.74,5.31,5.16,7.97,11.7,7.97,19.59s-2.77,14.96-8.31,20.27Z"/>
    </g>
  </g>
</svg>