<?xml version="1.0" encoding="UTF-8"?>
<svg id="Camada_2" xmlns="http://www.w3.org/2000/svg" version="1.1" viewBox="0 0 1378.1 299">
  <!-- Generator: Adobe Illustrator 30.3.0, SVG Export Plug-In . SVG Version: 2.1.3 Build 182)  -->
  <defs>
    <style>
      .st0 {
        fill: #fff;
      }
    </style>
  </defs>
  <g id="Layer_1">
    <g>
      <path class="st0" d="M15.4,256.4L0,299h187.5c27.7,0,52.5-17.1,62.1-42.9l11.9-31.8H61.4c-20.6,0-39,12.9-46,32.2h0ZM57.6,144.2c-9.6,20.6-16.3,42.6-24.3,63.9,18-19,39.9-21,64-21h138.4c23.8,0,45.1-14.8,53.4-37.2l13.9-37.7H104c-21.1,0-37.7,13.1-46.4,32h0ZM145.4,0c-21.1,0-37.7,13.1-46.4,32-9.6,20.6-16.3,42.6-24.3,63.9,18-19,39.9-21,64-21h138.4c23.8,0,45.1-14.8,53.4-37.2L344.4,0h-198.9Z"/>
      <path class="st0" d="M582.2,92.4l-52.8,156.5v3h23.5l11.8-35.3h74.3l11.8,35.3h23.7v-3l-52.6-156.5s-39.6,0-39.6,0ZM572,194.5l27.3-82h4.8l27.6,82h-59.7ZM757.6,161.2l-23.7-5.9c-15.2-3.3-22.8-10.7-22.8-22.1s2.7-11.3,8-15.8,12.8-6.7,22.3-6.7,16,2.2,22,6.5c6,4.3,9.9,10,11.7,17l21.4-6.4c-2.7-11.7-9-21-18.9-27.9s-22-10.4-36.2-10.4-29.2,4.2-39,12.5c-9.7,8.3-14.6,18.8-14.6,31.2s3.8,22.5,11.5,29.6c7.7,7.1,17.3,12,28.8,14.6l23.7,5.7c16.1,3.8,24.2,12,24.2,24.6s-3.1,13.3-9.3,18.1c-6.2,4.8-14.6,7.2-25.1,7.2s-19-2.4-25.6-7.2c-6.6-4.8-11-11.5-13.1-20.2l-21.9,6.6c3.3,13.5,10.4,24,21.1,31.4,10.7,7.4,23.9,11.2,39.5,11.2s32.1-4.6,42.6-13.8,15.7-20.3,15.7-33.4-3.8-22.5-11.4-30.2c-7.6-7.7-17.9-13.1-31-16.3h0ZM947.1,92.4h-25.7l-42.1,77.2h-4.8l-43-77.2h-24.8v3l53.1,93.6h5.5v62.9h23.5v-62.9h5l53.5-93.6v-3h0ZM439.9,181.2h64.7v-21.2h-64.7v-46h72.4v-21.6h-95.9v159.4h98.4v-21.4h-74.9v-49.2h0ZM969.2,114.1h57.9v85.9c0,9.3-3,17.1-9,23.4s-14.4,9.4-25.2,9.4-13.8-2.2-19.9-6.5c-6.2-4.3-10.5-10.4-13.1-18.3l-19.6,11.6c4,10.2,10.4,18.6,19.5,25.3,9,6.7,20.1,10,33.1,10s32.4-5.2,42.4-15.5,15-23.5,15-39.4v-107.5h-81.1v21.6h0ZM1176.1,194.9c0,11.7-3.5,21-10.5,27.8-7,6.8-16.3,10.2-28,10.2s-21.4-3.4-28.1-10.1c-6.8-6.8-10.1-16.1-10.1-27.9v-102.5h-23.7v102.7c0,17.5,5.7,31.8,17.1,42.9s26.3,16.7,44.9,16.7,33.3-5.6,44.8-16.9c11.5-11.2,17.2-25.5,17.2-42.8v-102.7h-23.5v102.5h0ZM1368.3,234.9c.6-.6.9-1.4.9-2.4s-.5-2.2-1.4-2.9-2.2-1.1-3.8-1.1h-7.1v16.1h3.3v-5.6h3.2c1.7,0,2.5.7,2.5,2.2v3.4h3.3v-4.1c0-.9-.3-1.6-.9-2.3-.6-.6-1.3-.9-2.2-.9v-1.3c.9,0,1.7-.4,2.3-1h0ZM1365.2,235.3c-.4.5-1.1.7-1.9.7h-3.1v-4.8h3.1c.8,0,1.5.2,1.9.7.4.5.6,1,.6,1.7s-.2,1.2-.6,1.7h0ZM1373.7,225.6c-2.9-2.9-6.6-4.4-11.1-4.4s-7.9,1.5-10.8,4.4c-2.9,2.9-4.3,6.5-4.3,10.7s1.4,7.8,4.3,10.7,6.6,4.4,11,4.4,8.1-1.5,11-4.4c2.9-2.9,4.3-6.5,4.3-10.7s-1.5-7.8-4.4-10.7h0ZM1371.4,245c-2.2,2.3-5.1,3.4-8.6,3.4s-6.3-1.1-8.6-3.4c-2.2-2.3-3.3-5.1-3.3-8.6s1.1-6.3,3.3-8.6c2.2-2.2,5-3.4,8.4-3.4s6.5,1.1,8.7,3.3c2.2,2.2,3.3,5.1,3.3,8.6s-1.1,6.4-3.3,8.7h0ZM1328.7,159.7c4.7-6.3,7.1-13.9,7.1-22.9,0-12.9-4.6-23.5-13.9-31.9-9.3-8.3-22-12.5-38.3-12.5h-61.1v159.4h23.5v-60.6h38.7c8.3,0,14.7,2.1,19.1,6.1,4.4,4.1,6.6,9.8,6.6,17.1v37.4h23.9v-39.2c0-10.5-2.5-18.8-7.6-24.9s-10.9-10.1-17.4-12v-4.6c8.2-1.4,14.7-5.2,19.4-11.5h0ZM1303.3,161.6c-5.6,5.3-12.5,8-20.8,8h-36.4v-55.6h35.5c9.4,0,16.8,2.6,22.1,7.7,5.3,5.2,8,11.7,8,19.6s-2.8,15-8.3,20.3h0Z"/>
    </g>
  </g>
</svg>