<?xml version="1.0" encoding="UTF-8"?>
<svg id="Camada_2" data-name="Camada 2" xmlns="http://www.w3.org/2000/svg" viewBox="0 0 344.35 299">
  <defs>
    <style>
      .cls-1 {
        fill: #e5293f;
      }
    </style>
  </defs>
  <g id="Layer_1" data-name="Layer 1">
    <path class="cls-1" d="M57.63,144.21c-9.56,20.64-16.32,42.57-24.31,63.94,18.03-19.02,39.94-21.02,63.96-21.02h138.41c23.81,0,45.1-14.83,53.35-37.17l13.94-37.72H104.04c-21.09,0-37.65,13.06-46.41,31.98ZM15.43,256.43L0,299h187.47c27.69,0,52.47-17.12,62.15-42.93l11.92-31.79H61.44c-20.61,0-39.01,12.86-46.01,32.16ZM145.42,0c-21.09,0-37.65,13.06-46.41,31.98-9.56,20.64-16.32,42.57-24.31,63.94,18.03-19.02,39.94-21.02,63.96-21.02h138.41c23.81,0,45.1-14.83,53.35-37.17L344.35,0h-198.93Z"/>
  </g>
</svg>